<svg width="41" height="40" viewBox="0 0 41 40" fill="none" xmlns="http://www.w3.org/2000/svg">
<path d="M20.766 19.3668C20.716 19.3668 20.6827 19.3668 20.6327 19.3668C20.5494 19.3502 20.4327 19.3502 20.3327 19.3668C15.4994 19.2168 11.8494 15.4168 11.8494 10.7335C11.8494 5.96683 15.7327 2.0835 20.4994 2.0835C25.266 2.0835 29.1494 5.96683 29.1494 10.7335C29.1327 15.4168 25.466 19.2168 20.816 19.3668C20.7994 19.3668 20.7827 19.3668 20.766 19.3668ZM20.4994 4.5835C17.116 4.5835 14.3494 7.35016 14.3494 10.7335C14.3494 14.0668 16.9494 16.7502 20.266 16.8668C20.3494 16.8502 20.5827 16.8502 20.7994 16.8668C24.066 16.7168 26.6327 14.0335 26.6494 10.7335C26.6494 7.35016 23.8827 4.5835 20.4994 4.5835Z" fill="#292D32"/>
<path d="M20.7827 37.5832C17.516 37.5832 14.2327 36.7498 11.7493 35.0832C9.43268 33.5498 8.16602 31.4498 8.16602 29.1665C8.16602 26.8832 9.43268 24.7665 11.7493 23.2165C16.7493 19.8998 24.8493 19.8998 29.816 23.2165C32.116 24.7498 33.3993 26.8498 33.3993 29.1332C33.3993 31.4165 32.1327 33.5332 29.816 35.0832C27.316 36.7498 24.0493 37.5832 20.7827 37.5832ZM13.1327 25.3165C11.5327 26.3832 10.666 27.7498 10.666 29.1832C10.666 30.5998 11.5493 31.9665 13.1327 33.0165C17.2827 35.7998 24.2827 35.7998 28.4327 33.0165C30.0327 31.9498 30.8993 30.5832 30.8993 29.1498C30.8993 27.7332 30.016 26.3665 28.4327 25.3165C24.2827 22.5498 17.2827 22.5498 13.1327 25.3165Z" fill="#292D32"/>
</svg>
