<svg width="40" height="40" viewBox="0 0 40 40" fill="none" xmlns="http://www.w3.org/2000/svg">
<path d="M29.3331 37.6H10.6664C7.63307 37.6 4.86641 35.2667 4.36641 32.2667L2.14974 19.0001C1.79974 16.9334 2.79975 14.2834 4.44975 12.9668L15.9998 3.71669C18.2331 1.91669 21.7497 1.93337 23.9997 3.73337L35.5498 12.9668C37.1831 14.2834 38.1831 16.9334 37.8498 19.0001L35.6331 32.2667C35.1331 35.2167 32.3164 37.6 29.3331 37.6ZM19.9831 4.90006C19.0998 4.90006 18.2164 5.16668 17.5664 5.68334L6.01642 14.9334C5.06642 15.7001 4.41643 17.4 4.61643 18.6L6.8331 31.8667C7.1331 33.6167 8.88307 35.1 10.6664 35.1H29.3331C31.1164 35.1 32.8664 33.6167 33.1664 31.85L35.3831 18.5834C35.5831 17.3834 34.9164 15.6667 33.9831 14.9167L22.4331 5.68334C21.7664 5.16668 20.8831 4.90006 19.9831 4.90006Z" fill="#292D32"/>
<path d="M20 27.0833C17.0166 27.0833 14.5833 24.65 14.5833 21.6667C14.5833 18.6833 17.0166 16.25 20 16.25C22.9833 16.25 25.4166 18.6833 25.4166 21.6667C25.4166 24.65 22.9833 27.0833 20 27.0833ZM20 18.75C18.4 18.75 17.0833 20.0667 17.0833 21.6667C17.0833 23.2667 18.4 24.5833 20 24.5833C21.6 24.5833 22.9166 23.2667 22.9166 21.6667C22.9166 20.0667 21.6 18.75 20 18.75Z" fill="#292D32"/>
</svg>
