<svg width="25" height="29" viewBox="0 0 25 29" fill="none" xmlns="http://www.w3.org/2000/svg">
<path d="M23.7286 14.795C23.1756 14.795 22.7169 14.3364 22.7169 13.7833V9.30472C22.7169 7.63198 21.3544 6.26951 19.6817 6.26951H1.01174C0.458654 6.26951 0 5.81086 0 5.25777C0 4.70469 0.458654 4.24604 1.01174 4.24604H19.6817C22.4741 4.24604 24.7404 6.51233 24.7404 9.30472V13.7833C24.7404 14.3498 24.2817 14.795 23.7286 14.795Z" fill="#292D32"/>
<path d="M5.27453 10.5457C5.01822 10.5457 4.76192 10.4513 4.55957 10.2489L0.296778 5.98615C0.10792 5.7973 0 5.54095 0 5.27115C0 5.00136 0.10792 4.74509 0.296778 4.55624L4.55957 0.293404C4.95077 -0.0978012 5.59828 -0.0978012 5.98949 0.293404C6.38069 0.684609 6.38069 1.3322 5.98949 1.7234L2.4417 5.27115L5.98949 8.81898C6.38069 9.21019 6.38069 9.8577 5.98949 10.2489C5.78714 10.4378 5.53083 10.5457 5.27453 10.5457Z" fill="#292D32"/>
<path d="M23.7286 24.7371H5.05869C2.26629 24.7371 0 22.4708 0 19.6784V15.1998C0 14.6467 0.458654 14.188 1.01174 14.188C1.56482 14.188 2.02347 14.6467 2.02347 15.1998V19.6784C2.02347 21.3511 3.38595 22.7136 5.05869 22.7136H23.7286C24.2817 22.7136 24.7404 23.1723 24.7404 23.7253C24.7404 24.2784 24.2817 24.7371 23.7286 24.7371Z" fill="#292D32"/>
<path d="M19.466 29C19.2097 29 18.9534 28.9056 18.7511 28.7032C18.3599 28.312 18.3599 27.6644 18.7511 27.2732L22.2988 23.7255L18.7511 20.1776C18.3599 19.7864 18.3599 19.1389 18.7511 18.7477C19.1423 18.3565 19.7898 18.3565 20.181 18.7477L24.4438 23.0105C24.6326 23.1993 24.7405 23.4557 24.7405 23.7255C24.7405 23.9953 24.6326 24.2515 24.4438 24.4404L20.181 28.7032C19.9921 28.9056 19.7358 29 19.466 29Z" fill="#292D32"/>
</svg>
