<svg width="120" height="120" viewBox="0 0 120 120" fill="none" xmlns="http://www.w3.org/2000/svg">
<path d="M110.1 84.1001L94.4502 47.5001C91.6002 40.8001 87.3502 37.0001 82.5002 36.7501C77.7002 36.5001 73.0502 39.8501 69.5002 46.2501L60.0002 63.3001C58.0002 66.9001 55.1502 69.0501 52.0502 69.3001C48.9002 69.6001 45.7502 67.9501 43.2002 64.7001L42.1002 63.3001C38.5502 58.8501 34.1502 56.7001 29.6502 57.1501C25.1502 57.6001 21.3002 60.7001 18.7502 65.7501L10.1002 83.0001C7.0002 89.2501 7.3002 96.5001 10.9502 102.4C14.6002 108.3 20.9502 111.85 27.9002 111.85H91.7002C98.4002 111.85 104.65 108.5 108.35 102.9C112.15 97.3001 112.75 90.2501 110.1 84.1001Z" fill="#C8C8C8"/>
<path d="M34.8502 41.9001C44.1838 41.9001 51.7502 34.3337 51.7502 25.0001C51.7502 15.6665 44.1838 8.1001 34.8502 8.1001C25.5166 8.1001 17.9502 15.6665 17.9502 25.0001C17.9502 34.3337 25.5166 41.9001 34.8502 41.9001Z" fill="#C8C8C8"/>
</svg>
