<svg width="36" height="36" viewBox="0 0 36 36" fill="none" xmlns="http://www.w3.org/2000/svg">
<path d="M7.95344 22.839C7.26693 22.839 6.69763 22.2697 6.69763 21.5832V14.3999C6.69763 13.7134 7.26693 13.1441 7.95344 13.1441C8.63995 13.1441 9.20925 13.7134 9.20925 14.3999V21.5832C9.20925 22.2865 8.63995 22.839 7.95344 22.839Z" fill="#EA4335"/>
<path d="M12.9767 25.2334C12.2902 25.2334 11.7209 24.6641 11.7209 23.9776V12.0222C11.7209 11.3357 12.2902 10.7664 12.9767 10.7664C13.6632 10.7664 14.2325 11.3357 14.2325 12.0222V23.9776C14.2325 24.6808 13.6632 25.2334 12.9767 25.2334Z" fill="#EA4335"/>
<path d="M17.9999 27.628C17.3134 27.628 16.7441 27.0587 16.7441 26.3722V9.62806C16.7441 8.94155 17.3134 8.37225 17.9999 8.37225C18.6864 8.37225 19.2558 8.94155 19.2558 9.62806V26.3722C19.2558 27.0587 18.6864 27.628 17.9999 27.628Z" fill="#EA4335"/>
<path d="M23.0232 25.2334C22.3367 25.2334 21.7674 24.6641 21.7674 23.9776V12.0222C21.7674 11.3357 22.3367 10.7664 23.0232 10.7664C23.7097 10.7664 24.279 11.3357 24.279 12.0222V23.9776C24.279 24.6808 23.7097 25.2334 23.0232 25.2334Z" fill="#EA4335"/>
<path d="M28.0464 22.839C27.3599 22.839 26.7906 22.2697 26.7906 21.5832V14.3999C26.7906 13.7134 27.3599 13.1441 28.0464 13.1441C28.7329 13.1441 29.3023 13.7134 29.3023 14.3999V21.5832C29.3023 22.2865 28.7329 22.839 28.0464 22.839Z" fill="#EA4335"/>
<path d="M23.0232 36H12.9767C3.88465 36 0 32.1153 0 23.0232V12.9767C0 3.88465 3.88465 0 12.9767 0H23.0232C32.1153 0 36 3.88465 36 12.9767V23.0232C36 32.1153 32.1153 36 23.0232 36ZM12.9767 2.51163C5.25767 2.51163 2.51163 5.25767 2.51163 12.9767V23.0232C2.51163 30.7423 5.25767 33.4883 12.9767 33.4883H23.0232C30.7423 33.4883 33.4883 30.7423 33.4883 23.0232V12.9767C33.4883 5.25767 30.7423 2.51163 23.0232 2.51163H12.9767Z" fill="#EA4335"/>
</svg>
