<svg width="27" height="27" viewBox="0 0 27 27" fill="none" xmlns="http://www.w3.org/2000/svg">
<path d="M0.782981 22.9635L0.755981 22.9905C0.391482 22.194 0.161983 21.2895 0.0674833 20.2905C0.161983 21.276 0.418482 22.167 0.782981 22.9635Z" fill="#008080"/>
<path d="M9.45001 11.313C11.2245 11.313 12.663 9.87445 12.663 8.09997C12.663 6.32548 11.2245 4.88698 9.45001 4.88698C7.67552 4.88698 6.23702 6.32548 6.23702 8.09997C6.23702 9.87445 7.67552 11.313 9.45001 11.313Z" fill="#008080"/>
<path d="M19.1564 0H7.84348C2.92949 0 0 2.92949 0 7.84348V19.1564C0 20.6279 0.256499 21.9104 0.755998 22.9904C1.91699 25.5554 4.40099 26.9999 7.84348 26.9999H19.1564C24.0704 26.9999 26.9999 24.0704 26.9999 19.1564V16.065V7.84348C26.9999 2.92949 24.0704 0 19.1564 0ZM24.7994 14.175C23.7464 13.2705 22.0454 13.2705 20.9924 14.175L15.3765 18.9944C14.3235 19.8989 12.6225 19.8989 11.5695 18.9944L11.1105 18.6164C10.152 17.7794 8.62647 17.6984 7.54648 18.4274L2.49749 21.8159C2.20049 21.0599 2.02499 20.1824 2.02499 19.1564V7.84348C2.02499 4.03649 4.03649 2.02499 7.84348 2.02499H19.1564C22.9634 2.02499 24.9749 4.03649 24.9749 7.84348V14.3235L24.7994 14.175Z" fill="#008080"/>
</svg>
