<svg width="27" height="27" viewBox="0 0 27 27" fill="none" xmlns="http://www.w3.org/2000/svg">
<path d="M19.1564 0H7.84348C2.92949 0 0 2.92949 0 7.84348V19.1429C0 24.0704 2.92949 26.9999 7.84348 26.9999H19.1429C24.0569 26.9999 26.9864 24.0704 26.9864 19.1564V7.84348C26.9999 2.92949 24.0704 0 19.1564 0ZM6.03448 7.72198C6.42598 7.33048 7.07398 7.33048 7.46548 7.72198C8.42397 8.68047 9.98997 8.68047 10.9485 7.72198C11.34 7.33048 11.988 7.33048 12.3795 7.72198C12.771 8.11348 12.771 8.76147 12.3795 9.15297C11.502 10.0305 10.3545 10.4625 9.20697 10.4625C8.05947 10.4625 6.91198 10.0305 6.03448 9.15297C5.64298 8.74797 5.64298 8.11348 6.03448 7.72198ZM13.5 22.6529C9.86847 22.6529 6.91198 19.6964 6.91198 16.065C6.91198 15.12 7.68148 14.337 8.62647 14.337H18.3464C19.2914 14.337 20.0609 15.1065 20.0609 16.065C20.0879 19.6964 17.1314 22.6529 13.5 22.6529ZM20.9654 9.15297C20.0879 10.0305 18.9404 10.4625 17.7929 10.4625C16.6454 10.4625 15.498 10.0305 14.6205 9.15297C14.229 8.76147 14.229 8.11348 14.6205 7.72198C15.012 7.33048 15.66 7.33048 16.0515 7.72198C17.0099 8.68047 18.5759 8.68047 19.5344 7.72198C19.9259 7.33048 20.5739 7.33048 20.9654 7.72198C21.3569 8.11348 21.3569 8.74797 20.9654 9.15297Z" fill="#008080"/>
</svg>
