<svg width="26" height="36" viewBox="0 0 26 36" fill="none" xmlns="http://www.w3.org/2000/svg">
<path d="M12.7774 17.5266C12.7267 17.5266 12.6929 17.5266 12.6422 17.5266C12.5577 17.5097 12.4394 17.5097 12.338 17.5266C7.43658 17.3745 3.7352 13.521 3.7352 8.77177C3.7352 3.938 7.6732 0 12.507 0C17.3407 0 21.2787 3.938 21.2787 8.77177C21.2618 13.521 17.5436 17.3745 12.8281 17.5266C12.8112 17.5266 12.7943 17.5266 12.7774 17.5266ZM12.507 2.53519C9.07601 2.53519 6.2704 5.34081 6.2704 8.77177C6.2704 12.152 8.907 14.8731 12.2704 14.9914C12.3549 14.9745 12.5915 14.9745 12.8112 14.9914C16.1239 14.8393 18.7266 12.1182 18.7435 8.77177C18.7435 5.34081 15.9379 2.53519 12.507 2.53519Z" fill="#292D32"/>
<path d="M12.7943 35.9999C9.48163 35.9999 6.15207 35.1549 3.63378 33.4647C1.2845 31.9098 0 29.7802 0 27.4648C0 25.1493 1.2845 23.0028 3.63378 21.431C8.70417 18.0676 16.9182 18.0676 21.9548 21.431C24.2872 22.9859 25.5886 25.1155 25.5886 27.431C25.5886 29.7464 24.3041 31.8929 21.9548 33.4647C19.4196 35.1549 16.1069 35.9999 12.7943 35.9999ZM5.03659 23.5606C3.41406 24.6422 2.53519 26.0282 2.53519 27.4817C2.53519 28.9183 3.43096 30.3042 5.03659 31.369C9.24501 34.1915 16.3435 34.1915 20.552 31.369C22.1745 30.2873 23.0534 28.9014 23.0534 27.4479C23.0534 26.0113 22.1576 24.6253 20.552 23.5606C16.3435 20.755 9.24501 20.755 5.03659 23.5606Z" fill="#292D32"/>
</svg>
