<svg width="36" height="36" viewBox="0 0 36 36" fill="none" xmlns="http://www.w3.org/2000/svg">
<path d="M28.0333 11.1467C27.9831 11.1467 27.9496 11.1467 27.8994 11.1467H27.8157C24.6525 11.0463 22.2927 8.60273 22.2927 5.59016C22.2927 2.51065 24.8032 0.0169163 27.8659 0.0169163C30.9287 0.0169163 33.4392 2.52739 33.4392 5.59016C33.4224 8.61946 31.0626 11.063 28.05 11.1634C28.05 11.1467 28.05 11.1467 28.0333 11.1467ZM27.8659 2.51066C26.1755 2.51066 24.8032 3.88305 24.8032 5.57344C24.8032 7.23035 26.0919 8.56927 27.7488 8.63621C27.7655 8.61948 27.8994 8.61948 28.05 8.63621C29.6735 8.55253 30.9287 7.21361 30.9454 5.57344C30.9454 3.88305 29.5731 2.51066 27.8659 2.51066Z" fill="#292D32"/>
<path d="M28.0502 23.4814C27.3975 23.4814 26.7448 23.4312 26.0921 23.3141C25.4059 23.1969 24.954 22.5442 25.0712 21.858C25.1883 21.1718 25.841 20.7199 26.5272 20.8371C28.5858 21.1885 30.7616 20.8036 32.2176 19.8329C33.0042 19.3141 33.4227 18.6613 33.4227 18.0086C33.4227 17.3559 32.9875 16.7199 32.2176 16.2011C30.7616 15.2303 28.5523 14.8454 26.477 15.2136C25.7908 15.3475 25.1381 14.8789 25.0209 14.1927C24.9038 13.5065 25.3557 12.8538 26.0419 12.7366C28.7699 12.2513 31.5984 12.7701 33.6068 14.109C35.0796 15.0965 35.9331 16.5023 35.9331 18.0086C35.9331 19.4981 35.0963 20.9208 33.6068 21.925C32.0837 22.9291 30.1088 23.4814 28.0502 23.4814Z" fill="#292D32"/>
<path d="M7.8995 11.1465C7.88277 11.1465 7.86603 11.1465 7.86603 11.1465C4.85346 11.0461 2.49362 8.60254 2.47688 5.58997C2.47688 2.51046 4.98736 0 8.05013 0C11.1129 0 13.6234 2.51047 13.6234 5.57325C13.6234 8.60255 11.2635 11.0461 8.25097 11.1465L7.8995 9.89126L8.01666 11.1465C7.98318 11.1465 7.93298 11.1465 7.8995 11.1465ZM8.06686 8.63602C8.16728 8.63602 8.25097 8.63602 8.35139 8.65275C9.84093 8.58581 11.1464 7.24689 11.1464 5.58997C11.1464 3.89959 9.77399 2.5272 8.0836 2.5272C6.39322 2.5272 5.02083 3.89959 5.02083 5.58997C5.02083 7.23015 6.2928 8.55233 7.91624 8.65275C7.93297 8.63602 7.99992 8.63602 8.06686 8.63602Z" fill="#292D32"/>
<path d="M7.88288 23.4814C5.82429 23.4814 3.84939 22.9291 2.32637 21.925C0.853559 20.9375 0 19.5149 0 18.0086C0 16.5191 0.853559 15.0965 2.32637 14.109C4.33475 12.7701 7.16321 12.2513 9.89125 12.7366C10.5774 12.8538 11.0293 13.5065 10.9122 14.1927C10.795 14.8789 10.1423 15.3475 9.45611 15.2136C7.38079 14.8454 5.18831 15.2303 3.7155 16.2011C2.92888 16.7199 2.51047 17.3559 2.51047 18.0086C2.51047 18.6613 2.94562 19.3141 3.7155 19.8329C5.17157 20.8036 7.34731 21.1885 9.40589 20.8371C10.0921 20.7199 10.7448 21.1885 10.862 21.858C10.9791 22.5442 10.5272 23.1969 9.84105 23.3141C9.18832 23.4312 8.5356 23.4814 7.88288 23.4814Z" fill="#292D32"/>
<path d="M17.9914 23.6488C17.9412 23.6488 17.9077 23.6488 17.8575 23.6488H17.7738C14.6106 23.5484 12.2508 21.1048 12.2508 18.0923C12.2508 15.0127 14.7613 12.519 17.824 12.519C20.8868 12.519 23.3973 15.0295 23.3973 18.0923C23.3806 21.1216 21.0207 23.5651 18.0081 23.6655C18.0081 23.6488 18.0081 23.6488 17.9914 23.6488ZM17.824 15.0128C16.1337 15.0128 14.7613 16.3851 14.7613 18.0755C14.7613 19.7324 16.05 21.0714 17.7069 21.1383C17.7236 21.1216 17.8575 21.1216 18.0081 21.1383C19.6316 21.0546 20.8868 19.7157 20.9036 18.0755C20.9036 16.4019 19.5312 15.0128 17.824 15.0128Z" fill="#292D32"/>
<path d="M17.9913 36.0001C15.9829 36.0001 13.9745 35.4813 12.418 34.4269C10.9452 33.4394 10.0917 32.0336 10.0917 30.5273C10.0917 29.0377 10.9285 27.5984 12.418 26.6109C15.5477 24.5356 20.4515 24.5356 23.5645 26.6109C25.0373 27.5984 25.8909 29.0043 25.8909 30.5105C25.8909 32.0001 25.0541 33.4394 23.5645 34.4269C22.008 35.4646 19.9996 36.0001 17.9913 36.0001ZM13.8071 28.7197C13.0205 29.2386 12.6021 29.8913 12.6021 30.544C12.6021 31.1967 13.0373 31.8327 13.8071 32.3516C16.0666 33.8746 19.8992 33.8746 22.1586 32.3516C22.9453 31.8327 23.3637 31.18 23.3637 30.5273C23.3637 29.8746 22.9285 29.2386 22.1586 28.7197C19.916 27.1967 16.0833 27.2135 13.8071 28.7197Z" fill="#292D32"/>
</svg>
