<svg width="24" height="28" viewBox="0 0 24 28" fill="none" xmlns="http://www.w3.org/2000/svg">
<path d="M23.662 9.05917C22.2423 2.8124 16.7932 0 12.0068 0C12.0068 0 12.0068 0 11.9932 0C7.22026 0 1.75772 2.79888 0.337999 9.04565C-1.24398 16.0226 3.02871 21.9313 6.89576 25.6496C8.329 27.0288 10.1679 27.7184 12.0068 27.7184C13.8456 27.7184 15.6845 27.0288 17.1042 25.6496C20.9713 21.9313 25.244 16.0361 23.662 9.05917ZM12.0068 15.8333C9.65407 15.8333 7.74759 13.9268 7.74759 11.5741C7.74759 9.22142 9.65407 7.31494 12.0068 7.31494C14.3594 7.31494 16.2659 9.22142 16.2659 11.5741C16.2659 13.9268 14.3594 15.8333 12.0068 15.8333Z" fill="#008080"/>
</svg>
