<svg width="420" height="120" viewBox="0 0 420 120" fill="none" xmlns="http://www.w3.org/2000/svg">
<g filter="url(#filter0_d_1429_4218)">
<rect width="420" height="120" fill="white"/>
<path d="M88.1699 75.5517L93.4199 69.503C93.6666 69.2197 93.8024 68.8567 93.8024 68.4811C93.8024 68.1055 93.6666 67.7425 93.4199 67.4592L92.2949 66.1655L84.1387 75.5405L88.1699 75.5517ZM115.204 44.4492H111.18L94.8824 63.1992C94.633 63.4827 94.4954 63.8473 94.4954 64.2248C94.4954 64.6024 94.633 64.967 94.8824 65.2505L103.841 75.563H107.869L98.6849 64.9842C98.4998 64.7724 98.3977 64.5006 98.3977 64.2192C98.3977 63.9379 98.4998 63.6661 98.6849 63.4542L115.204 44.4492Z" fill="url(#paint0_linear_1429_4218)"/>
<path d="M114.859 75.5512L103.031 61.9462L102 63.1162C101.753 63.3995 101.617 63.7625 101.617 64.1381C101.617 64.5137 101.753 64.8767 102 65.16L111.03 75.5512H114.859ZM104.081 44.4488L98.5312 50.8237C98.2863 51.1071 98.1516 51.4692 98.1516 51.8437C98.1516 52.2183 98.2863 52.5804 98.5312 52.8637L99.5512 54.0375L107.895 44.4375L104.081 44.4488ZM84 44.4488L95.955 58.1887L97.0275 56.955C97.2744 56.6711 97.4104 56.3075 97.4104 55.9312C97.4104 55.555 97.2744 55.1914 97.0275 54.9075L87.8437 44.4488H84ZM76.8037 44.4488L89.7787 59.3775C89.9617 59.5904 90.0623 59.8618 90.0623 60.1425C90.0623 60.4232 89.9617 60.6946 89.7787 60.9075L77.0512 75.5512H80.8612L93.4762 61.0387C93.7211 60.7554 93.8559 60.3933 93.8559 60.0188C93.8559 59.6442 93.7211 59.2821 93.4762 58.9987L80.8275 44.4488H76.8037Z" fill="url(#paint1_linear_1429_4218)"/>
<path d="M142.663 71L135.239 48.6H139.559L146.183 68.856H144.039L150.919 48.6H154.759L161.447 68.856H159.367L166.151 48.6H170.119L162.695 71H158.279L152.167 52.728H153.319L147.111 71H142.663ZM182.371 71V67.544L182.147 66.808V60.76C182.147 59.5867 181.795 58.68 181.091 58.04C180.387 57.3787 179.32 57.048 177.891 57.048C176.931 57.048 175.981 57.1973 175.043 57.496C174.125 57.7947 173.347 58.2107 172.707 58.744L171.139 55.832C172.056 55.128 173.144 54.6053 174.403 54.264C175.683 53.9013 177.005 53.72 178.371 53.72C180.845 53.72 182.755 54.3173 184.099 55.512C185.464 56.6853 186.147 58.5093 186.147 60.984V71H182.371ZM176.995 71.224C175.715 71.224 174.595 71.0107 173.635 70.584C172.675 70.136 171.928 69.528 171.395 68.76C170.883 67.9707 170.627 67.0853 170.627 66.104C170.627 65.144 170.851 64.28 171.299 63.512C171.768 62.744 172.525 62.136 173.571 61.688C174.616 61.24 176.003 61.016 177.731 61.016H182.691V63.672H178.019C176.653 63.672 175.736 63.896 175.267 64.344C174.797 64.7707 174.563 65.304 174.563 65.944C174.563 66.6693 174.851 67.2453 175.427 67.672C176.003 68.0987 176.803 68.312 177.827 68.312C178.808 68.312 179.683 68.088 180.451 67.64C181.24 67.192 181.805 66.5307 182.147 65.656L182.819 68.056C182.435 69.0587 181.741 69.8373 180.739 70.392C179.757 70.9467 178.509 71.224 176.995 71.224ZM195.512 71L188.184 53.912H192.344L198.648 68.984H196.6L203.128 53.912H206.968L199.64 71H195.512ZM217.031 71.224C215.132 71.224 213.468 70.8507 212.039 70.104C210.631 69.336 209.532 68.2907 208.743 66.968C207.975 65.6453 207.591 64.1413 207.591 62.456C207.591 60.7493 207.964 59.2453 208.711 57.944C209.479 56.6213 210.524 55.5867 211.847 54.84C213.191 54.0933 214.716 53.72 216.423 53.72C218.087 53.72 219.57 54.0827 220.871 54.808C222.172 55.5333 223.196 56.5573 223.943 57.88C224.69 59.2027 225.063 60.76 225.063 62.552C225.063 62.7227 225.052 62.9147 225.031 63.128C225.031 63.3413 225.02 63.544 224.999 63.736H210.759V61.08H222.887L221.319 61.912C221.34 60.9307 221.138 60.0667 220.711 59.32C220.284 58.5733 219.698 57.9867 218.951 57.56C218.226 57.1333 217.383 56.92 216.423 56.92C215.442 56.92 214.578 57.1333 213.831 57.56C213.106 57.9867 212.53 58.584 212.103 59.352C211.698 60.0987 211.495 60.984 211.495 62.008V62.648C211.495 63.672 211.73 64.5787 212.199 65.368C212.668 66.1573 213.33 66.7653 214.183 67.192C215.036 67.6187 216.018 67.832 217.127 67.832C218.087 67.832 218.951 67.6827 219.719 67.384C220.487 67.0853 221.17 66.616 221.767 65.976L223.911 68.44C223.143 69.336 222.172 70.0293 220.999 70.52C219.847 70.9893 218.524 71.224 217.031 71.224ZM228.905 71V53.912H232.713V58.616L232.265 57.24C232.777 56.088 233.577 55.2133 234.665 54.616C235.775 54.0187 237.151 53.72 238.793 53.72V57.528C238.623 57.4853 238.463 57.464 238.313 57.464C238.164 57.4427 238.015 57.432 237.865 57.432C236.351 57.432 235.145 57.88 234.249 58.776C233.353 59.6507 232.905 60.9627 232.905 62.712V71H228.905ZM238.726 71L248.166 58.008V61.144L239.174 48.6H243.878L250.566 57.88L248.646 57.912L255.27 48.6H259.782L250.854 60.92V57.912L260.358 71H255.558L248.518 61.144H250.406L243.462 71H238.726Z" fill="#333333"/>
<path d="M377.333 46.666H366.667C361.333 46.666 358.667 49.3327 358.667 54.666V71.9993C358.667 72.7327 359.267 73.3327 360 73.3327H377.333C382.667 73.3327 385.333 70.666 385.333 65.3327V54.666C385.333 49.3327 382.667 46.666 377.333 46.666Z" stroke="#888C93" stroke-width="1.5" stroke-linecap="round" stroke-linejoin="round"/>
<path d="M367.333 60H376.667" stroke="#888C93" stroke-width="1.5" stroke-miterlimit="10" stroke-linecap="round" stroke-linejoin="round"/>
<path d="M372 64.6673V55.334" stroke="#888C93" stroke-width="1.5" stroke-miterlimit="10" stroke-linecap="round" stroke-linejoin="round"/>
</g>
<defs>
<filter id="filter0_d_1429_4218" x="-8" y="-4" width="436" height="136" filterUnits="userSpaceOnUse" color-interpolation-filters="sRGB">
<feFlood flood-opacity="0" result="BackgroundImageFix"/>
<feColorMatrix in="SourceAlpha" type="matrix" values="0 0 0 0 0 0 0 0 0 0 0 0 0 0 0 0 0 0 127 0" result="hardAlpha"/>
<feOffset dy="4"/>
<feGaussianBlur stdDeviation="4"/>
<feComposite in2="hardAlpha" operator="out"/>
<feColorMatrix type="matrix" values="0 0 0 0 0 0 0 0 0 0 0 0 0 0 0 0 0 0 0.08 0"/>
<feBlend mode="normal" in2="BackgroundImageFix" result="effect1_dropShadow_1429_4218"/>
<feBlend mode="normal" in="SourceGraphic" in2="effect1_dropShadow_1429_4218" result="shape"/>
</filter>
<linearGradient id="paint0_linear_1429_4218" x1="99.6712" y1="75.563" x2="99.6712" y2="44.4492" gradientUnits="userSpaceOnUse">
<stop stop-color="#008080"/>
<stop offset="1" stop-color="#34A853"/>
</linearGradient>
<linearGradient id="paint1_linear_1429_4218" x1="95.8312" y1="75.5512" x2="95.8312" y2="44.4375" gradientUnits="userSpaceOnUse">
<stop stop-color="#008080"/>
<stop offset="1" stop-color="#34A853"/>
</linearGradient>
</defs>
</svg>
