<svg width="7" height="26" viewBox="0 0 7 26" fill="none" xmlns="http://www.w3.org/2000/svg">
<path d="M0.764706 22.5163C0.764706 24.0118 1.98824 25.2353 3.48366 25.2353C4.97908 25.2353 6.20261 24.0118 6.20261 22.5163C6.20261 21.0209 4.97908 19.7974 3.48366 19.7974C1.98824 19.7974 0.764706 21.0209 0.764706 22.5163Z" stroke="#292D32" stroke-width="1.5"/>
<path d="M0.764706 3.48358C0.764706 4.979 1.98824 6.20253 3.48366 6.20253C4.97908 6.20253 6.20261 4.979 6.20261 3.48358C6.20261 1.98815 4.97908 0.764622 3.48366 0.764622C1.98824 0.764622 0.764706 1.98815 0.764706 3.48358Z" stroke="#292D32" stroke-width="1.5"/>
<path d="M0.764706 13.0001C0.764706 14.4955 1.98824 15.719 3.48366 15.719C4.97908 15.719 6.20261 14.4955 6.20261 13.0001C6.20261 11.5047 4.97908 10.2811 3.48366 10.2811C1.98824 10.2811 0.764706 11.5047 0.764706 13.0001Z" stroke="#292D32" stroke-width="1.5"/>
</svg>
