<svg width="29" height="29" viewBox="0 0 29 29" fill="none" xmlns="http://www.w3.org/2000/svg">
<path d="M26.1815 15.842C25.6665 15.842 25.2329 15.449 25.1651 14.934C24.8399 11.8714 23.1866 9.09333 20.6389 7.33164C20.1782 7.0064 20.0697 6.38304 20.3814 5.92229C20.7067 5.46154 21.3436 5.35312 21.7908 5.66481C24.8263 7.76529 26.7777 11.0718 27.1707 14.7172C27.2249 15.2728 26.8319 15.7742 26.2628 15.842C26.2492 15.842 26.2086 15.842 26.1815 15.842Z" fill="#292D32"/>
<path d="M2.96782 15.9096C2.92717 15.9096 2.90007 15.9096 2.85941 15.9096C2.3038 15.8418 1.89726 15.3404 1.95147 14.7848C2.31735 11.1395 4.25521 7.84647 7.25009 5.71889C7.71084 5.39366 8.34776 5.50207 8.67299 5.96282C8.99823 6.42357 8.88981 7.06049 8.42906 7.38573C5.90849 9.16097 4.28232 11.939 3.97063 15.0016C3.92998 15.5166 3.48278 15.9096 2.96782 15.9096Z" fill="#292D32"/>
<path d="M14.5813 28.7697C12.5757 28.7697 10.665 28.309 8.87618 27.4146C8.37477 27.1571 8.1715 26.5473 8.42898 26.0459C8.68646 25.5445 9.29627 25.3412 9.79768 25.5987C12.7248 27.0758 16.2482 27.1029 19.2024 25.68C19.7038 25.436 20.3136 25.6529 20.5575 26.1543C20.8015 26.6557 20.5846 27.2655 20.0832 27.5094C18.3487 28.3496 16.5057 28.7697 14.5813 28.7697Z" fill="#292D32"/>
<path d="M14.5813 9.56733C11.9387 9.56733 9.7976 7.4262 9.7976 4.78367C9.7976 2.14113 11.9387 0 14.5813 0C17.2238 0 19.3649 2.14113 19.3649 4.78367C19.3649 7.4262 17.2103 9.56733 14.5813 9.56733ZM14.5813 2.04627C13.0635 2.04627 11.8303 3.27945 11.8303 4.79722C11.8303 6.31498 13.0635 7.54816 14.5813 7.54816C16.099 7.54816 17.3322 6.31498 17.3322 4.79722C17.3322 3.27945 16.0855 2.04627 14.5813 2.04627Z" fill="#292D32"/>
<path d="M4.78367 26.1407C2.14113 26.1407 0 23.9996 0 21.3571C0 18.7281 2.14113 16.5734 4.78367 16.5734C7.4262 16.5734 9.56733 18.7145 9.56733 21.3571C9.56733 23.9861 7.4262 26.1407 4.78367 26.1407ZM4.78367 18.6061C3.2659 18.6061 2.03272 19.8393 2.03272 21.3571C2.03272 22.8748 3.2659 24.108 4.78367 24.108C6.30143 24.108 7.53461 22.8748 7.53461 21.3571C7.53461 19.8393 6.30143 18.6061 4.78367 18.6061Z" fill="#292D32"/>
<path d="M24.2163 26.1407C21.5738 26.1407 19.4327 23.9996 19.4327 21.3571C19.4327 18.7281 21.5738 16.5734 24.2163 16.5734C26.8589 16.5734 29 18.7145 29 21.3571C28.9865 23.9861 26.8453 26.1407 24.2163 26.1407ZM24.2163 18.6061C22.6986 18.6061 21.4654 19.8393 21.4654 21.3571C21.4654 22.8748 22.6986 24.108 24.2163 24.108C25.7341 24.108 26.9673 22.8748 26.9673 21.3571C26.9537 19.8393 25.7341 18.6061 24.2163 18.6061Z" fill="#292D32"/>
</svg>
