<svg width="32" height="32" viewBox="0 0 32 32" fill="none" xmlns="http://www.w3.org/2000/svg">
<path d="M31.7659 19.4607V21.1326C31.7659 21.584 31.4148 21.9518 30.9467 21.9685H28.5057C27.6197 21.9685 26.8171 21.3165 26.7503 20.4471C26.7001 19.9288 26.9007 19.444 27.2351 19.1096C27.5361 18.792 27.954 18.6248 28.4054 18.6248H30.93C31.4148 18.6415 31.7659 19.0093 31.7659 19.4607Z" fill="#008080"/>
<path d="M25.9811 17.8726C25.1451 18.6918 24.7439 19.9123 25.0783 21.1829C25.5129 22.7378 27.0344 23.7242 28.6394 23.7242H30.0939C31.0134 23.7242 31.7658 24.4765 31.7658 25.3961V25.7137C31.7658 29.1745 28.9403 32 25.4795 32H6.28628C2.82548 32 0 29.1745 0 25.7137V14.4619C0 12.4055 0.986411 10.5832 2.50783 9.44629C3.56111 8.64379 4.86518 8.17566 6.28628 8.17566H25.4795C28.9403 8.17566 31.7658 11.0011 31.7658 14.4619V15.1976C31.7658 16.1171 31.0134 16.8695 30.0939 16.8695H28.3886C27.4523 16.8695 26.5997 17.2373 25.9811 17.8726Z" fill="#008080"/>
<path d="M22.9885 4.71471C23.4399 5.16612 23.0554 5.86831 22.4201 5.86831L9.57999 5.85159C8.84436 5.85159 8.45983 4.94878 8.99483 4.43049L11.7033 1.70532C13.9938 -0.56844 17.7053 -0.56844 19.9958 1.70532L22.9216 4.66456C22.9383 4.68127 22.9718 4.69799 22.9885 4.71471Z" fill="#008080"/>
</svg>
