<svg width="34" height="33" viewBox="0 0 34 33" fill="none" xmlns="http://www.w3.org/2000/svg">
<path d="M31.717 10.4017L20.0647 1.08663C18.2656 -0.359394 15.3567 -0.359394 13.5744 1.06981L1.92219 10.4017C0.610683 11.4442 -0.230027 13.6468 0.0558143 15.2946L2.2921 28.6787C2.69564 31.0663 4.98237 33 7.40362 33H26.2355C28.64 33 30.9435 31.0495 31.347 28.6787L33.5833 15.2946C33.8524 13.6468 33.0116 11.4442 31.717 10.4017ZM16.8196 22.3902C14.4992 22.3902 12.616 20.507 12.616 18.1867C12.616 15.8663 14.4992 13.9831 16.8196 13.9831C19.1399 13.9831 21.0231 15.8663 21.0231 18.1867C21.0231 20.507 19.1399 22.3902 16.8196 22.3902Z" fill="#008080"/>
</svg>
