<svg width="36" height="36" viewBox="0 0 36 36" fill="none" xmlns="http://www.w3.org/2000/svg">
<path d="M26.3721 35.996H9.6279C3.8679 35.996 0 32.128 0 26.3681V17.996C0 12.8388 3.18139 9.10483 8.12092 8.4853C8.58976 8.41832 9.10883 8.36808 9.6279 8.36808H26.3721C26.7739 8.36808 27.293 8.38482 27.8288 8.46854C32.7683 9.03784 36 12.7885 36 17.996V26.3681C36 32.128 32.1321 35.996 26.3721 35.996ZM9.6279 10.8797C9.22604 10.8797 8.84092 10.9132 8.4558 10.9634C4.77209 11.4322 2.51163 14.1113 2.51163 17.996V26.3681C2.51163 30.6881 5.3079 33.4843 9.6279 33.4843H26.3721C30.6921 33.4843 33.4883 30.6881 33.4883 26.3681V17.996C33.4883 14.0778 31.1944 11.382 27.4772 10.9467C27.0753 10.8797 26.7237 10.8797 26.3721 10.8797H9.6279Z" fill="#292D32"/>
<path d="M8.27162 10.98C7.86976 10.98 7.50138 10.7958 7.25022 10.4609C6.96557 10.0758 6.93208 9.5735 7.14976 9.15489C7.43441 8.58559 7.83627 8.03303 8.35534 7.53071L13.7972 2.07209C16.5767 -0.690697 21.0976 -0.690697 23.8772 2.07209L26.8074 5.03584C28.0465 6.25816 28.8 7.89909 28.8837 9.64049C28.9004 10.0256 28.7497 10.3939 28.4651 10.6451C28.1804 10.8963 27.7953 11.0135 27.4269 10.9465C27.0921 10.8963 26.7404 10.8795 26.3721 10.8795H9.62789C9.22603 10.8795 8.84092 10.913 8.4558 10.9632C8.40557 10.98 8.33859 10.98 8.27162 10.98ZM11.0679 8.36791H26.0707C25.853 7.79861 25.5014 7.27956 25.0325 6.81072L22.0856 3.83026C20.2939 2.05538 17.3637 2.05538 15.5553 3.83026L11.0679 8.36791Z" fill="#292D32"/>
<path d="M34.7441 26.7865H29.7209C27.1758 26.7865 25.1163 24.727 25.1163 22.1819C25.1163 19.6367 27.1758 17.5772 29.7209 17.5772H34.7441C35.4307 17.5772 36 18.1465 36 18.833C36 19.5195 35.4307 20.0888 34.7441 20.0888H29.7209C28.5655 20.0888 27.6279 21.0265 27.6279 22.1819C27.6279 23.3372 28.5655 24.2749 29.7209 24.2749H34.7441C35.4307 24.2749 36 24.8442 36 25.5307C36 26.2172 35.4307 26.7865 34.7441 26.7865Z" fill="#292D32"/>
</svg>
