<svg width="33" height="36" viewBox="0 0 33 36" fill="none" xmlns="http://www.w3.org/2000/svg">
<path d="M16.5 35.9543C15.3673 35.9543 14.2177 35.7007 13.3217 35.1766L4.02357 29.8175C0.23668 27.2647 0 26.8759 0 22.8692V13.0977C0 9.09106 0.219775 8.70223 3.93904 6.18328L13.3048 0.773438C15.0799 -0.257813 17.8694 -0.257813 19.6445 0.773438L28.9764 6.14946C32.7633 8.70223 33 9.09106 33 13.0977V22.8523C33 26.859 32.7802 27.2478 29.061 29.7668L19.6952 35.1766C18.7823 35.7007 17.6327 35.9543 16.5 35.9543ZM16.5 2.54854C15.79 2.54854 15.0968 2.68379 14.6066 2.97118L5.3084 8.34721C2.55277 10.2068 2.55277 10.2068 2.55277 13.0977V22.8523C2.55277 25.7432 2.55277 25.7432 5.37603 27.6536L14.6066 32.9789C15.604 33.5537 17.4129 33.5537 18.4104 32.9789L27.7085 27.6029C30.4472 25.7432 30.4472 25.7432 30.4472 22.8523V13.0977C30.4472 10.2068 30.4472 10.2068 27.624 8.29649L18.3934 2.97118C17.9032 2.68379 17.21 2.54854 16.5 2.54854Z" fill="#292D32"/>
<path d="M16.5001 24.3232C13.0006 24.3232 10.1604 21.4831 10.1604 17.9836C10.1604 14.4841 13.0006 11.6439 16.5001 11.6439C19.9996 11.6439 22.8397 14.4841 22.8397 17.9836C22.8397 21.4831 19.9996 24.3232 16.5001 24.3232ZM16.5001 14.1798C14.4037 14.1798 12.6963 15.8873 12.6963 17.9836C12.6963 20.0799 14.4037 21.7874 16.5001 21.7874C18.5964 21.7874 20.3039 20.0799 20.3039 17.9836C20.3039 15.8873 18.5964 14.1798 16.5001 14.1798Z" fill="#292D32"/>
</svg>
