<svg width="27" height="27" viewBox="0 0 27 27" fill="none" xmlns="http://www.w3.org/2000/svg">
<path d="M19.1564 0H7.84348C2.92949 0 0 2.92949 0 7.84348V19.1429C0 24.0704 2.92949 26.9999 7.84348 26.9999H19.1429C24.0569 26.9999 26.9864 24.0704 26.9864 19.1564V7.84348C26.9999 2.92949 24.0704 0 19.1564 0ZM6.41248 16.389C6.41248 16.9424 5.95348 17.4014 5.39998 17.4014C4.84649 17.4014 4.38749 16.9424 4.38749 16.389V10.611C4.38749 10.0575 4.84649 9.59847 5.39998 9.59847C5.95348 9.59847 6.41248 10.0575 6.41248 10.611V16.389ZM10.4625 18.3194C10.4625 18.8729 10.0035 19.3319 9.44997 19.3319C8.89647 19.3319 8.43747 18.8729 8.43747 18.3194V8.68047C8.43747 8.12698 8.89647 7.66798 9.44997 7.66798C10.0035 7.66798 10.4625 8.12698 10.4625 8.68047V18.3194ZM14.5125 20.2499C14.5125 20.8034 14.0535 21.2624 13.5 21.2624C12.9465 21.2624 12.4875 20.8034 12.4875 20.2499V6.74998C12.4875 6.19648 12.9465 5.73748 13.5 5.73748C14.0535 5.73748 14.5125 6.19648 14.5125 6.74998V20.2499ZM18.5624 18.3194C18.5624 18.8729 18.1034 19.3319 17.5499 19.3319C16.9964 19.3319 16.5375 18.8729 16.5375 18.3194V8.68047C16.5375 8.12698 16.9964 7.66798 17.5499 7.66798C18.1034 7.66798 18.5624 8.12698 18.5624 8.68047V18.3194ZM22.6124 16.389C22.6124 16.9424 22.1534 17.4014 21.5999 17.4014C21.0464 17.4014 20.5874 16.9424 20.5874 16.389V10.611C20.5874 10.0575 21.0464 9.59847 21.5999 9.59847C22.1534 9.59847 22.6124 10.0575 22.6124 10.611V16.389Z" fill="#008080"/>
</svg>
