<svg width="29" height="26" viewBox="0 0 29 26" fill="none" xmlns="http://www.w3.org/2000/svg">
<path d="M14.4818 25.9999C14.0642 25.9999 13.6601 25.946 13.3233 25.8248C8.17718 24.06 0 17.7958 0 8.54091C0 3.8259 3.81243 0 8.5005 0C10.7772 0 12.9057 0.889117 14.4818 2.47875C16.058 0.889117 18.1865 0 20.4632 0C25.1512 0 28.9637 3.83937 28.9637 8.54091C28.9637 17.8093 20.7865 24.06 15.6404 25.8248C15.3036 25.946 14.8994 25.9999 14.4818 25.9999ZM8.5005 2.02072C4.93056 2.02072 2.02072 4.94403 2.02072 8.54091C2.02072 17.7419 10.8715 22.8611 13.9834 23.9253C14.2259 24.0062 14.7513 24.0062 14.9937 23.9253C18.0922 22.8611 26.9564 17.7554 26.9564 8.54091C26.9564 4.94403 24.0466 2.02072 20.4766 2.02072C18.429 2.02072 16.5295 2.97719 15.3036 4.63419C14.9264 5.1461 14.0642 5.1461 13.687 4.63419C12.4342 2.96372 10.5482 2.02072 8.5005 2.02072Z" fill="#292D32"/>
</svg>
