<svg width="29" height="29" viewBox="0 0 29 29" fill="none" xmlns="http://www.w3.org/2000/svg">
<path d="M14.4597 29.0001C13.5316 29.0001 12.6573 28.5293 12.0385 27.7088L10.0209 25.0186C9.98055 24.9648 9.81914 24.8976 9.75188 24.8841H9.07934C3.47033 24.8841 0 23.3642 0 15.8048V9.07934C0 3.13405 3.13405 0 9.07934 0H19.84C25.7853 0 28.9194 3.13405 28.9194 9.07934V15.8048C28.9194 21.7501 25.7853 24.8841 19.84 24.8841H19.1675C19.0599 24.8841 18.9657 24.9379 18.8985 25.0186L16.8808 27.7088C16.2621 28.5293 15.3878 29.0001 14.4597 29.0001ZM9.07934 2.01763C4.26393 2.01763 2.01763 4.26393 2.01763 9.07934V15.8048C2.01763 21.8846 4.10252 22.8665 9.07934 22.8665H9.75188C10.4379 22.8665 11.218 23.2566 11.635 23.8081L13.6526 26.4982C14.1234 27.117 14.796 27.117 15.2667 26.4982L17.2844 23.8081C17.7283 23.2162 18.4277 22.8665 19.1675 22.8665H19.84C24.6555 22.8665 26.9018 20.6202 26.9018 15.8048V9.07934C26.9018 4.26393 24.6555 2.01763 19.84 2.01763H9.07934Z" fill="#292D32"/>
<path d="M14.4597 14.46C13.7064 14.46 13.1146 13.8547 13.1146 13.1149C13.1146 12.3751 13.7199 11.7698 14.4597 11.7698C15.1995 11.7698 15.8048 12.3751 15.8048 13.1149C15.8048 13.8547 15.2129 14.46 14.4597 14.46Z" fill="#292D32"/>
<path d="M19.8401 14.46C19.0868 14.46 18.495 13.8547 18.495 13.1149C18.495 12.3751 19.1003 11.7698 19.8401 11.7698C20.5799 11.7698 21.1852 12.3751 21.1852 13.1149C21.1852 13.8547 20.5933 14.46 19.8401 14.46Z" fill="#292D32"/>
<path d="M9.07942 14.46C8.32617 14.46 7.73433 13.8547 7.73433 13.1149C7.73433 12.3751 8.33962 11.7698 9.07942 11.7698C9.81922 11.7698 10.4245 12.3751 10.4245 13.1149C10.4245 13.8547 9.83267 14.46 9.07942 14.46Z" fill="#292D32"/>
</svg>
