<svg width="26" height="29" viewBox="0 0 26 29" fill="none" xmlns="http://www.w3.org/2000/svg">
<path d="M25 28.667H1C0.453333 28.667 0 28.2137 0 27.667C0 27.1203 0.453333 26.667 1 26.667H25C25.5467 26.667 26 27.1203 26 27.667C26 28.2137 25.5467 28.667 25 28.667Z" fill="#292D32"/>
<path d="M4.46663 24.6668H2.33333C1.05333 24.6668 0 23.6135 0 22.3335V10.8402C0 9.56017 1.05333 8.50684 2.33333 8.50684H4.46663C5.74663 8.50684 6.79997 9.56017 6.79997 10.8402V22.3335C6.79997 23.6135 5.74663 24.6668 4.46663 24.6668ZM2.33333 10.4935C2.14667 10.4935 2 10.6402 2 10.8268V22.3335C2 22.5202 2.14667 22.6668 2.33333 22.6668H4.46663C4.6533 22.6668 4.79997 22.5202 4.79997 22.3335V10.8402C4.79997 10.6535 4.6533 10.5068 4.46663 10.5068H2.33333V10.4935Z" fill="#292D32"/>
<path d="M14.067 24.6667H11.9337C10.6537 24.6667 9.60034 23.6134 9.60034 22.3334V6.58675C9.60034 5.30675 10.6537 4.25342 11.9337 4.25342H14.067C15.347 4.25342 16.4003 5.30675 16.4003 6.58675V22.3334C16.4003 23.6134 15.347 24.6667 14.067 24.6667ZM11.9337 6.25342C11.747 6.25342 11.6003 6.40008 11.6003 6.58675V22.3334C11.6003 22.5201 11.747 22.6667 11.9337 22.6667H14.067C14.2536 22.6667 14.4003 22.5201 14.4003 22.3334V6.58675C14.4003 6.40008 14.2536 6.25342 14.067 6.25342H11.9337Z" fill="#292D32"/>
<path d="M23.6666 24.6667H21.5333C20.2533 24.6667 19.2 23.6133 19.2 22.3333V2.33333C19.2 1.05333 20.2533 0 21.5333 0H23.6666C24.9466 0 25.9999 1.05333 25.9999 2.33333V22.3333C25.9999 23.6133 24.9466 24.6667 23.6666 24.6667ZM21.5333 2C21.3466 2 21.2 2.14667 21.2 2.33333V22.3333C21.2 22.52 21.3466 22.6667 21.5333 22.6667H23.6666C23.8533 22.6667 23.9999 22.52 23.9999 22.3333V2.33333C23.9999 2.14667 23.8533 2 23.6666 2H21.5333Z" fill="#292D32"/>
</svg>
