<svg width="36" height="31" viewBox="0 0 36 31" fill="none" xmlns="http://www.w3.org/2000/svg">
<path d="M26.3721 30.9767H9.6279C3.51628 30.9767 0 27.4604 0 21.3488V9.6279C0 3.51628 3.51628 0 9.6279 0H26.3721C32.4837 0 36 3.51628 36 9.6279V21.3488C36 27.4604 32.4837 30.9767 26.3721 30.9767ZM9.6279 2.51163C4.83906 2.51163 2.51163 4.83906 2.51163 9.6279V21.3488C2.51163 26.1376 4.83906 28.4651 9.6279 28.4651H26.3721C31.1609 28.4651 33.4883 26.1376 33.4883 21.3488V9.6279C33.4883 4.83906 31.1609 2.51163 26.3721 2.51163H9.6279Z" fill="#292D32"/>
<path d="M17.9995 16.9451C16.593 16.9451 15.1698 16.5098 14.0814 15.6223L8.84046 11.4363C8.30465 11.001 8.20419 10.214 8.63954 9.67816C9.07489 9.14234 9.86187 9.04189 10.3977 9.47724L15.6386 13.6633C16.9111 14.6847 19.0711 14.6847 20.3437 13.6633L25.5846 9.47724C26.1204 9.04189 26.9242 9.1256 27.3428 9.67816C27.7781 10.214 27.6944 11.0177 27.1419 11.4363L21.9009 15.6223C20.8293 16.5098 19.406 16.9451 17.9995 16.9451Z" fill="#292D32"/>
</svg>
