<svg width="41" height="40" viewBox="0 0 41 40" fill="none" xmlns="http://www.w3.org/2000/svg">
<path d="M20.5 37.7163C19.3833 37.7163 18.25 37.4663 17.3667 36.9497L8.2 31.6663C4.46667 29.1497 4.23334 28.7663 4.23334 24.8163V15.183C4.23334 11.233 4.45 10.8497 8.11667 8.36634L17.35 3.03301C19.1 2.01634 21.85 2.01634 23.6 3.03301L32.8 8.33301C36.5333 10.8497 36.7667 11.233 36.7667 15.183V24.7997C36.7667 28.7497 36.55 29.133 32.8833 31.6163L23.65 36.9497C22.75 37.4663 21.6167 37.7163 20.5 37.7163ZM20.5 4.78301C19.8 4.78301 19.1167 4.91634 18.6333 5.19967L9.46667 10.4997C6.75 12.333 6.75 12.333 6.75 15.183V24.7997C6.75 27.6497 6.75 27.6497 9.53334 29.533L18.6333 34.783C19.6167 35.3497 21.4 35.3497 22.3833 34.783L31.55 29.483C34.25 27.6497 34.25 27.6497 34.25 24.7997V15.183C34.25 12.333 34.25 12.333 31.4667 10.4497L22.3667 5.19967C21.8833 4.91634 21.2 4.78301 20.5 4.78301Z" fill="#292D32"/>
<path d="M20.5 26.25C17.05 26.25 14.25 23.45 14.25 20C14.25 16.55 17.05 13.75 20.5 13.75C23.95 13.75 26.75 16.55 26.75 20C26.75 23.45 23.95 26.25 20.5 26.25ZM20.5 16.25C18.4333 16.25 16.75 17.9333 16.75 20C16.75 22.0667 18.4333 23.75 20.5 23.75C22.5667 23.75 24.25 22.0667 24.25 20C24.25 17.9333 22.5667 16.25 20.5 16.25Z" fill="#292D32"/>
</svg>
