<svg width="41" height="40" viewBox="0 0 41 40" fill="none" xmlns="http://www.w3.org/2000/svg">
<path d="M28.8333 35.4163H12.1666C6.08331 35.4163 2.58331 31.9163 2.58331 25.833V14.1663C2.58331 8.08301 6.08331 4.58301 12.1666 4.58301H28.8333C34.9166 4.58301 38.4166 8.08301 38.4166 14.1663V25.833C38.4166 31.9163 34.9166 35.4163 28.8333 35.4163ZM12.1666 7.08301C7.39998 7.08301 5.08331 9.39967 5.08331 14.1663V25.833C5.08331 30.5997 7.39998 32.9163 12.1666 32.9163H28.8333C33.6 32.9163 35.9166 30.5997 35.9166 25.833V14.1663C35.9166 9.39967 33.6 7.08301 28.8333 7.08301H12.1666Z" fill="#292D32"/>
<path d="M20.4997 21.4499C19.0996 21.4499 17.683 21.0166 16.5997 20.1333L11.383 15.9666C10.8496 15.5333 10.7497 14.7499 11.183 14.2166C11.6163 13.6833 12.3997 13.5833 12.933 14.0166L18.1496 18.1833C19.4163 19.2 21.5663 19.2 22.833 18.1833L28.0496 14.0166C28.583 13.5833 29.383 13.6666 29.7997 14.2166C30.233 14.7499 30.1497 15.55 29.5997 15.9666L24.383 20.1333C23.3163 21.0166 21.8996 21.4499 20.4997 21.4499Z" fill="#292D32"/>
</svg>
